<svg preserveAspectRatio="xMidYMid meet" viewBox="72 33 137.4 216" xmlns="http://www.w3.org/2000/svg" version="1.0" style="max-height: 500px" width="137.4" height="216">
<metadata>
Created by potrace 1.10, written by Peter Selinger 2001-2011
</metadata>
<g stroke="none" fill="blue" transform="translate(0.000000,300.000000) scale(0.100000,-0.100000)">
<path  fill="#273C58" d="M1376 2595 c-4 -27 -10 -67 -13 -88 -3 -28 -12 -41 -29 -49 -27 -13&#10;-39 -46 -30 -83 8 -32 26 -33 26 -1 0 35 51 54 85 32 14 -9 25 -25 25 -36 0&#10;-34 19 -22 26 17 6 33 4 39 -27 65 -30 25 -34 35 -44 110 l-12 83 -7 -50z"/>
<path fill="#273C58" d="M1365 2328 c-3 -29 -9 -66 -11 -81 l-6 -29 31 17 c33 16 35 24 25 99&#10;-9 64 -30 60 -39 -6z"/>
<path fill="#273C58" d="M1630 2287 c-14 -29 -22 -33 -98 -49 -228 -49 -321 -153 -377 -420&#10;l-18 -88 -39 0 c-37 0 -78 -26 -78 -50 0 -5 25 -10 55 -10 52 0 55 -1 50 -22&#10;-3 -13 -12 -58 -21 -101 -43 -220 -123 -423 -197 -504 -11 -13 -18 -25 -15&#10;-28 3 -3 33 24 66 60 109 116 178 287 228 570 13 77 32 172 40 210 42 179 120&#10;270 274 320 108 35 156 74 148 123 -3 17 -5 16 -18 -11z"/>
<path fill="#DB4749" d="M1435 2091 c-103 -48 -127 -107 -190 -461 -36 -203 -68 -319 -119&#10;-424 -73 -153 -129 -213 -229 -247 l-52 -18 42 0 c145 -3 261 118 342 357 31&#10;91 81 305 81 350 0 22 2 22 129 22 129 0 130 0 151 28 l22 27 -50 3 -50 3 -26&#10;107 c-13 59 -26 116 -28 127 -3 16 -7 13 -25 -18 -22 -36 -22 -40 -9 -110 8&#10;-39 17 -80 21 -89 6 -16 0 -18 -58 -18 l-65 0 19 88 c35 161 88 232 174 232&#10;29 0 44 -7 71 -34 53 -53 45 -117 -19 -156 -29 -18 -30 -20 -9 -20 61 0 112&#10;59 112 128 0 42 -39 94 -90 120 -54 27 -92 28 -145 3z"/>
<path fill="#273C58" d="M1490 1614 c0 -12 49 -143 65 -174 l16 -30 -124 0 -123 0 -11 -30&#10;-11 -30 188 0 c182 0 190 1 210 22 29 32 25 38 -24 38 l-44 0 -30 73 c-16 39&#10;-34 86 -39 102 -8 24 -16 31 -41 33 -18 2 -32 0 -32 -4z"/>
<path fill="#273C58" d="M1647 1269 c36 -63 130 -165 198 -216 88 -67 106 -68 33 -3 -57 50&#10;-142 158 -172 218 -13 25 -23 32 -47 32 l-30 0 18 -31z"/>
<path fill="#273C58" d="M1330 1200 c-49 -23 -114 -69 -107 -76 3 -3 22 5 43 18 33 20 53 23&#10;134 23 118 0 171 -21 280 -112 101 -85 148 -107 235 -110 l70 -3 -55 13 c-70&#10;16 -117 45 -207 129 -97 89 -184 132 -278 136 -54 2 -80 -2 -115 -18z"/>
<path fill="#DB4749" d="M952 833 c-11 -16 -29 -47 -41 -70 -12 -24 -28 -43 -35 -43 -9 0 -12&#10;-7 -9 -18 5 -21 -47 -82 -70 -82 -8 0 -20 6 -26 14 -17 20 3 56 29 56 11 0 20&#10;5 20 10 0 21 -50 10 -66 -15 -21 -32 -15 -56 18 -74 23 -13 30 -13 54 -1 15 8&#10;38 32 52 52 20 31 31 38 58 38 l34 0 -20 -50 c-25 -64 -25 -96 -1 -110 33 -17&#10;46 -11 22 11 -15 14 -20 27 -16 42 31 107 51 157 62 157 17 0 16 -9 -2 -53&#10;-21 -52 -19 -84 6 -92 12 -4 27 -1 37 8 15 13 19 13 30 1 16 -18 27 -18 44 0&#10;8 7 28 15 45 18 25 3 33 0 41 -18 13 -26 52 -37 87 -24 19 7 33 26 48 60 14&#10;33 27 50 38 50 10 0 21 5 24 10 3 6 -3 10 -14 10 -25 0 -25 3 -5 57 16 41 19&#10;43 48 38 38 -7 61 7 52 30 -5 14 -13 16 -39 10 -42 -9 -81 -9 -140 0 -56 9&#10;-87 -11 -87 -55 0 -36 17 -50 62 -50 49 0 50 18 1 22 -42 3 -55 27 -32 55 10&#10;12 25 14 63 9 27 -3 53 -9 57 -13 5 -5 1 -30 -9 -56 -12 -34 -22 -47 -36 -47&#10;-18 0 -18 -1 -3 -12 15 -12 15 -16 -2 -55 -28 -60 -84 -70 -97 -16 -7 28 19&#10;63 48 63 10 0 18 5 18 10 0 6 -11 10 -24 10 -16 0 -36 -14 -59 -41 -21 -26&#10;-39 -39 -46 -35 -9 6 -8 14 3 32 20 30 20 68 1 84 -25 21 -59 -2 -84 -57 -52&#10;-111 -93 -113 -54 -2 12 34 23 49 35 49 10 0 18 5 18 10 0 6 -7 10 -15 10 -13&#10;0 -14 4 -4 21 8 15 8 24 0 32 -7 7 -12 5 -16 -6 -3 -9 -7 -24 -10 -32 -2 -8&#10;-11 -15 -19 -15 -12 0 -13 6 -6 32 17 58 -33 81 -68 31z m52 -1 c3 -5 -2 -32&#10;-11 -60 -16 -49 -19 -52 -51 -52 -26 0 -32 3 -25 13 5 6 22 33 37 60 26 46 39&#10;56 50 39z m166 -107 c0 -14 -7 -28 -15 -31 -8 -4 -15 -16 -15 -29 0 -26 -24&#10;-50 -40 -40 -6 4 -8 14 -5 24 4 9 8 24 11 35 11 56 64 90 64 41z"/>
<path fill="#DB4749" d="M1934 748 c-28 -85 -62 -132 -92 -126 -36 8 -3 128 35 128 10 0 14&#10;-7 10 -20 -7 -27 10 -36 18 -9 5 14 1 27 -9 37 -26 27 -59 2 -94 -72 -45 -94&#10;-69 -89 -36 7 19 58 8 80 -39 74 -25 -3 -33 -10 -49 -53 -25 -64 -58 -98 -87&#10;-89 -33 10 -26 43 12 58 39 17 60 40 55 64 -5 25 -36 28 -60 6 -11 -10 -31&#10;-41 -43 -69 -13 -28 -28 -55 -34 -58 -19 -12 -23 21 -7 53 21 40 20 50 -6 60&#10;-13 5 -23 17 -23 27 0 12 -8 20 -24 22 -22 3 -23 1 -18 -28 4 -19 1 -45 -8&#10;-66 -11 -28 -12 -34 -1 -34 8 0 17 10 20 23 9 35 21 48 38 42 14 -5 14 -11 0&#10;-50 -14 -36 -14 -46 -3 -59 17 -20 38 -20 49 0 8 15 11 15 34 0 49 -32 118 8&#10;118 68 0 22 45 70 58 62 8 -5 7 -18 -4 -48 -7 -22 -14 -51 -14 -63 0 -30 28&#10;-40 51 -19 17 15 19 15 35 0 12 -12 25 -15 52 -10 42 8 48 14 62 64 12 44 37&#10;80 56 80 18 0 18 -10 -2 -71 -17 -51 -9 -79 22 -79 15 0 64 60 64 78 0 23 -18&#10;11 -40 -24 -28 -48 -47 -33 -25 19 21 51 19 84 -5 92 -11 3 -25 3 -32 -1 -8&#10;-5 -9 -2 -4 12 16 38 18 54 8 54 -6 0 -23 -37 -38 -82z m-294 -13 c0 -15 -29&#10;-35 -51 -35 -7 0 -2 11 11 25 27 28 40 32 40 10z"/>
</g>
</svg>