<?xml version="1.0" standalone="no"?>
<!DOCTYPE svg PUBLIC "-//W3C//DTD SVG 20010904//EN"
 "http://www.w3.org/TR/2001/REC-SVG-20010904/DTD/svg10.dtd">
<svg version="1.0" xmlns="http://www.w3.org/2000/svg"
 width="300.000000pt" height="378.000000pt" viewBox="0 0 300.000000 378.000000"
 preserveAspectRatio="xMidYMid meet">
<metadata>
Created by potrace 1.10, written by Peter Selinger 2001-2011
</metadata>
<g transform="translate(0.000000,378.000000) scale(0.100000,-0.100000)"
fill="#000000" stroke="none">
<path d="M1437 3615 c-3 -22 -14 -100 -24 -173 l-17 -132 -43 -21 c-85 -41
-104 -103 -58 -189 13 -25 24 -38 25 -30 0 8 5 32 11 53 18 67 109 98 178 63
39 -21 50 -38 60 -87 l8 -44 21 48 c41 91 20 151 -62 188 l-41 18 -26 173
c-21 142 -27 166 -32 133z m64 -345 c15 0 79 -62 79 -76 0 -9 -11 -6 -36 11
-20 14 -44 25 -53 26 -9 0 -27 2 -41 3 -31 4 -98 -19 -122 -41 -17 -15 -18
-15 -18 0 0 19 33 53 72 73 15 8 35 27 44 44 l18 29 25 -34 c13 -19 28 -35 32
-35z"/>
<path d="M1426 3114 c-9 -8 -16 -32 -16 -52 0 -20 -7 -84 -15 -142 -7 -57 -13
-106 -12 -107 8 -7 128 61 124 70 -2 7 -10 62 -18 122 -15 124 -27 145 -63
109z m37 -172 c2 -46 -1 -57 -15 -60 -15 -3 -18 4 -18 35 0 21 3 55 7 77 8 53
24 23 26 -52z"/>
<path d="M1967 2989 c7 -45 -17 -93 -56 -113 -15 -8 -69 -22 -119 -31 -138
-24 -256 -61 -356 -113 -127 -65 -251 -189 -318 -318 -72 -137 -131 -345 -163
-566 l-7 -48 -75 0 c-91 0 -124 -15 -152 -72 l-21 -43 114 -3 113 -3 -14 -72
c-89 -455 -172 -737 -289 -970 -63 -127 -109 -201 -160 -257 -20 -22 -34 -43
-31 -46 3 -4 53 40 110 97 263 261 391 581 518 1294 75 424 112 549 201 686
90 141 201 218 428 302 168 61 229 93 266 143 33 43 43 119 20 149 -14 19 -15
18 -9 -16z m-177 -193 c-8 -8 -60 -31 -115 -51 -193 -71 -275 -121 -374 -225
-48 -51 -113 -155 -143 -230 -26 -66 -86 -277 -93 -328 -15 -114 -104 -575
-130 -677 -34 -129 -84 -294 -102 -335 -81 -185 -151 -305 -107 -185 58 159
82 236 128 410 42 161 68 275 85 385 6 36 13 75 15 87 7 33 -45 74 -84 66 -35
-7 -100 4 -100 17 0 17 41 31 98 34 31 2 64 4 72 5 23 2 46 48 55 106 13 91
63 303 90 377 94 260 256 423 505 509 53 18 157 42 205 48 5 0 3 -5 -5 -13z"/>
<path d="M1637 2570 c-108 -19 -216 -95 -276 -195 -72 -119 -104 -239 -176
-660 -87 -508 -151 -750 -265 -992 -143 -303 -322 -477 -530 -513 -38 -6 -31
-8 46 -9 156 -2 267 43 382 153 195 186 348 565 451 1116 17 89 31 173 31 186
l0 24 251 0 c156 0 258 4 270 11 20 10 79 85 79 100 0 5 -44 10 -97 11 l-97 3
-13 50 c-28 108 -66 275 -82 365 l-18 95 -41 -65 c-30 -47 -42 -76 -42 -103 0
-42 32 -213 56 -291 7 -27 14 -51 14 -53 0 -2 -56 -3 -125 -3 -101 0 -125 3
-125 14 0 23 50 266 66 326 72 255 245 375 416 289 66 -33 118 -118 118 -191
0 -89 -88 -198 -160 -198 -11 0 -20 -5 -20 -11 0 -16 87 -1 146 26 148 66 179
270 60 402 -66 73 -126 102 -246 118 -14 1 -47 -1 -73 -5z m193 -63 c99 -44
160 -132 160 -229 0 -31 -5 -60 -10 -63 -6 -4 -8 -10 -6 -14 3 -4 1 -13 -5
-21 -6 -10 -9 8 -9 53 0 210 -214 324 -402 214 -115 -67 -178 -191 -232 -460
-44 -215 -41 -219 121 -221 167 -3 174 6 139 156 -35 148 -45 232 -31 259 16
29 19 21 45 -91 11 -52 31 -133 43 -180 12 -47 21 -88 20 -91 -1 -4 9 -17 23
-30 18 -17 38 -24 81 -26 65 -3 69 -5 49 -25 -17 -18 -136 -27 -356 -28 -191
-1 -185 5 -216 -185 -23 -136 -86 -409 -119 -515 -100 -320 -237 -566 -370
-665 -22 -17 -46 -36 -53 -42 -7 -7 -21 -13 -30 -13 -11 0 3 20 39 57 92 95
158 191 224 328 125 259 207 548 275 975 6 36 13 76 15 90 3 14 10 54 15 90
56 353 127 538 243 632 97 77 236 95 347 45z"/>
<path d="M1660 1571 c0 -14 86 -250 123 -338 l35 -83 -247 0 -247 0 -14 -47
c-8 -27 -16 -54 -18 -60 -3 -10 77 -13 375 -13 422 0 406 -3 443 70 11 22 20
42 20 45 0 3 -40 5 -89 5 l-89 0 -50 118 c-27 64 -64 161 -83 214 l-34 98 -62
0 c-35 0 -63 -4 -63 -9z m108 -58 c6 -16 25 -66 42 -113 17 -47 37 -98 45
-115 7 -16 24 -55 38 -86 27 -62 67 -89 131 -89 39 0 45 -10 20 -31 -23 -19
-678 -23 -694 -4 -23 27 16 34 233 37 193 3 221 5 238 21 24 23 24 44 -2 104
-36 81 -99 263 -99 283 0 31 36 25 48 -7z"/>
<path d="M1946 918 c55 -96 210 -292 296 -374 101 -96 303 -242 317 -228 3 2
-5 11 -17 20 -133 93 -328 325 -434 516 l-43 78 -63 0 c-48 0 -61 -3 -56 -12z
m156 -118 c29 -47 64 -103 77 -125 l24 -40 -39 41 c-34 34 -122 149 -148 192
-10 17 2 34 19 25 8 -5 38 -46 67 -93z"/>
<path d="M1450 759 c-80 -13 -205 -78 -275 -143 l-60 -55 80 39 c171 84 330
90 532 21 106 -36 198 -92 296 -178 176 -153 253 -200 383 -233 78 -20 282
-29 239 -10 -11 5 -36 9 -55 10 -55 1 -167 45 -242 95 -37 25 -120 94 -184
153 -139 128 -212 182 -319 232 -134 64 -278 89 -395 69z m234 -49 c144 -37
277 -113 400 -227 153 -143 174 -163 165 -163 -20 0 -129 83 -207 157 -40 38
-136 104 -200 136 -39 20 -73 37 -75 36 -1 0 -9 2 -17 5 -40 15 -143 37 -218
48 -91 13 -87 22 11 26 38 2 92 -5 141 -18z"/>
</g>
</svg>
