<svg preserveAspectRatio="xMidYMid meet" viewBox="13.2 9.588850174216027 272.40000000000003 69.21951219512195" xmlns="http://www.w3.org/2000/svg" version="1.0" style="max-height: 500px" width="272.40000000000003" height="69.21951219512195">
<metadata>
Created by potrace 1.10, written by Peter Selinger 2001-2011
</metadata>
<g stroke="none" fill="#000000" transform="translate(0.000000,86.000000) scale(0.100000,-0.100000)">
<path d="M1245 753 c-61 -12 -105 -65 -105 -127 0 -28 7 -45 31 -68 29 -30 32&#10;-30 100 -26 79 6 90 12 67 34 -12 13 -20 14 -36 5 -71 -38 -150 21 -121 90 25&#10;63 73 71 211 38 l87 -22 -14 -27 c-8 -15 -25 -61 -39 -101 -23 -68 -27 -74&#10;-56 -79 -37 -6 -40 -24 -5 -28 15 -2 25 -6 23 -10 -2 -4 -14 -36 -27 -71 -14&#10;-35 -39 -79 -56 -97 -28 -29 -39 -34 -78 -34 -38 0 -49 5 -71 31 -31 36 -33&#10;73 -6 116 22 37 40 48 93 57 50 9 43 31 -10 30 -51 -1 -96 -32 -135 -95 -18&#10;-30 -39 -51 -55 -55 -41 -11 -47 8 -20 62 28 56 41 116 32 145 -7 20 -53 49&#10;-79 49 -33 0 -89 -66 -128 -150 -50 -109 -82 -150 -114 -150 -13 0 -27 7 -30&#10;15 -4 9 11 68 32 133 l39 117 40 0 c51 0 57 28 8 33 -18 2 -33 6 -33 9 0 15&#10;34 73 42 73 6 0 5 7 -2 15 -22 27 -42 12 -59 -45 -16 -52 -19 -55 -47 -52 -16&#10;2 -30 5 -32 6 -1 2 5 19 13 39 18 44 20 108 3 125 -7 7 -29 12 -49 12 -32 0&#10;-43 -6 -72 -42 -19 -24 -58 -87 -87 -140 -50 -95 -53 -98 -86 -98 -24 0 -34&#10;-5 -34 -15 0 -8 9 -15 20 -15 11 0 20 -5 20 -10 0 -16 -75 -115 -106 -139 -78&#10;-62 -179 25 -109 94 18 18 35 25 65 25 46 0 53 16 14 31 -32 12 -83 -3 -108&#10;-30 -20 -22 -31 -80 -22 -115 7 -27 69 -66 106 -66 36 0 99 48 145 111 24 33&#10;47 69 50 79 6 18 16 20 82 20 67 0 74 -2 68 -17 -29 -75 -75 -227 -75 -248 0&#10;-15 5 -35 11 -47 13 -25 78 -53 91 -40 10 10 3 17 -37 37 -37 19 -31 76 25&#10;235 29 80 54 153 57 163 3 11 15 17 34 17 16 0 29 -2 29 -4 0 -2 -16 -51 -35&#10;-109 -41 -124 -44 -160 -13 -181 35 -25 63 -19 97 19 l31 36 10 -25 c20 -54&#10;73 -60 120 -11 26 27 37 32 51 25 26 -15 60 -12 80 6 16 14 18 13 24 -14 13&#10;-61 80 -95 158 -81 64 11 113 76 141 187 12 46 14 47 52 48 78 3 78 3 64 19&#10;-7 9 -29 15 -51 15 -36 0 -51 12 -30 24 5 3 12 18 16 33 3 15 14 45 24 68 10&#10;22 21 48 24 57 5 15 15 16 70 11 71 -6 117 13 117 48 0 45 -105 54 -164 14&#10;-34 -23 -39 -24 -69 -12 -57 24 -177 47 -212 40z m395 -33 c23 -15 -5 -30 -58&#10;-30 -49 0 -48 15 1 29 42 12 40 12 57 1z m-956 -17 c6 -21 -2 -61 -34 -160&#10;l-24 -73 -74 0 -74 0 16 23 c8 12 34 55 57 95 22 40 52 86 66 102 28 33 59 39&#10;67 13z m334 -209 c2 -18 -1 -47 -6 -65 -7 -27 -13 -33 -30 -31 -20 3 -22 -1&#10;-22 -41 0 -51 -33 -91 -72 -85 -27 4 -36 43 -20 87 6 14 13 37 16 51 3 14 19&#10;47 36 73 27 43 34 48 63 45 28 -3 32 -7 35 -34z"/>
<path d="M2634 678 c-4 -6 -25 -63 -46 -127 -51 -149 -94 -237 -129 -261 -39&#10;-28 -94 -26 -114 4 -37 55 49 236 112 236 30 0 39 -23 24 -57 -15 -33 0 -51&#10;23 -28 9 10 16 33 16 55 0 47 -33 76 -75 66 -43 -11 -99 -77 -129 -152 -37&#10;-92 -71 -144 -96 -144 -34 0 -34 27 -1 120 38 106 38 148 -1 170 -23 12 -33&#10;13 -60 2 -21 -8 -36 -8 -42 -2 -18 18 -24 11 -46 -57 -34 -104 -78 -191 -110&#10;-213 -54 -39 -130 -17 -130 37 0 30 10 53 24 53 25 0 123 53 143 78 29 35 29&#10;76 1 96 -59 42 -127 -12 -183 -141 -21 -48 -46 -100 -57 -115 -21 -31 -55 -37&#10;-65 -13 -6 17 33 153 48 169 18 20 8 34 -38 51 -60 22 -71 31 -55 47 33 33&#10;-15 81 -57 59 -28 -15 -28 -65 -1 -84 19 -13 19 -15 -19 -89 -22 -42 -37 -79&#10;-33 -82 19 -20 39 -1 63 62 25 62 29 67 55 65 44 -3 47 -15 25 -88 -26 -83&#10;-27 -127 -3 -148 29 -26 58 -20 88 17 l27 34 32 -34 c38 -40 87 -46 128 -14&#10;l25 20 5 -21 c10 -37 28 -16 59 66 16 44 34 93 40 108 6 15 24 46 39 67 23 31&#10;36 40 59 40 42 0 42 -23 4 -137 -30 -91 -31 -127 -2 -147 12 -9 30 -16 39 -16&#10;17 0 62 37 73 61 5 12 7 12 12 0 25 -55 97 -77 143 -45 22 16 24 16 33 1 12&#10;-22 35 -11 43 21 3 15 15 45 25 67 10 22 23 58 29 80 15 59 65 115 102 115 25&#10;0 29 -4 29 -26 0 -15 -12 -62 -26 -104 -31 -96 -29 -139 8 -159 38 -22 65 -4&#10;117 76 38 58 41 67 28 80 -17 17 -20 13 -68 -77 -19 -35 -30 -45 -49 -45 -22&#10;0 -25 4 -22 32 1 18 9 52 18 75 30 82 38 126 26 152 -14 31 -55 41 -94 21 -17&#10;-8 -32 -14 -33 -13 -2 2 10 30 26 62 16 33 29 63 29 67 0 13 -29 18 -36 7z&#10;m-644 -159 c0 -25 -24 -51 -73 -79 -29 -16 -55 -30 -59 -30 -18 0 -5 28 33 73&#10;31 36 47 47 70 47 16 0 29 -5 29 -11z"/>
</g>
</svg>